<svg width="35" height="35" viewBox="0 0 35 35" fill="none" xmlns="http://www.w3.org/2000/svg">
<path d="M17.5 23.3333C20.7217 23.3333 23.3333 20.7216 23.3333 17.5C23.3333 14.2783 20.7217 11.6666 17.5 11.6666C14.2783 11.6666 11.6667 14.2783 11.6667 17.5C11.6667 20.7216 14.2783 23.3333 17.5 23.3333Z" stroke="#6B7280" stroke-width="3" stroke-linecap="round" stroke-linejoin="round"/>
<path d="M23.3333 11.6666V18.9582C23.3333 20.1186 23.7943 21.2314 24.6147 22.0518C25.4352 22.8723 26.548 23.3332 27.7083 23.3332C28.8687 23.3332 29.9815 22.8723 30.8019 22.0518C31.6224 21.2314 32.0833 20.1186 32.0833 18.9582V17.4999C32.0831 14.2085 30.9695 11.0139 28.9235 8.43568C26.8775 5.85743 24.0196 4.04711 20.8143 3.29909C17.609 2.55107 14.2449 2.90934 11.269 4.31565C8.29319 5.72196 5.88058 8.09359 4.4235 11.0449C2.96642 13.9962 2.55057 17.3537 3.24357 20.5713C3.93658 23.789 5.69767 26.6775 8.2405 28.7674C10.7833 30.8572 13.9583 32.0254 17.2493 32.082C20.5402 32.1386 23.7535 31.0803 26.3667 29.0791" stroke="#6B7280" stroke-width="3" stroke-linecap="round" stroke-linejoin="round"/>
</svg>
