<svg width="35" height="35" viewBox="0 0 35 35" fill="none" xmlns="http://www.w3.org/2000/svg">
<g clip-path="url(#clip0_1_214)">
<path d="M33.5417 4.37489C32.1451 5.35997 30.5989 6.11339 28.9625 6.60614C28.0842 5.59626 26.9169 4.88049 25.6186 4.55562C24.3202 4.23075 22.9534 4.31247 21.703 4.78972C20.4526 5.26697 19.379 6.11673 18.6273 7.22406C17.8755 8.3314 17.4821 9.64288 17.5 10.9811V12.4395C14.9372 12.5059 12.3977 11.9375 10.1077 10.7849C7.81775 9.6323 5.84837 7.93124 4.37499 5.83323C4.37499 5.83323 -1.45834 18.9582 11.6667 24.7916C8.66326 26.8303 5.08543 27.8525 1.45833 27.7082C14.5833 34.9999 30.625 27.7082 30.625 10.9374C30.6237 10.5312 30.5846 10.126 30.5083 9.72698C31.9967 8.25915 33.047 6.40593 33.5417 4.37489V4.37489Z" stroke="#6B7280" stroke-width="3" stroke-linecap="round" stroke-linejoin="round"/>
</g>
<defs>
<clipPath id="clip0_1_214">
<rect width="35" height="35" fill="white"/>
</clipPath>
</defs>
</svg>
